<?xml version="1.0" encoding="utf-8"?>
<!-- Generator: Adobe Illustrator 24.1.3, SVG Export Plug-In . SVG Version: 6.00 Build 0)  -->
<svg version="1.1" id="Layer_1" xmlns="http://www.w3.org/2000/svg" xmlns:xlink="http://www.w3.org/1999/xlink" x="0px" y="0px"
	 viewBox="0 0 216 216" style="enable-background:new 0 0 216 216;" xml:space="preserve">
<style type="text/css">
	.st0{fill:#FFFFFF;stroke:#363FE0;stroke-width:5;stroke-miterlimit:10;}
</style>
<g>
	<path class="st0" d="M42.2,154.1c0,17.4,0,34.7,0,52.4H16.5c0-1.7,0-3.4,0-5.1c0.1-22.7,0-45.5,0.4-68.2c0.1-6.7-2.3-11.6-7.1-15.8
		c-1.5-1.3-2.9-2.6-5.1-4.7c6.9,0,12.7,0,18.5,0c5.3,0,10.7,0.1,16.1-0.1c2.8-0.1,4.3,0.9,5.8,3.2c5,8.4,10.2,16.6,15.6,25.5
		c1.2-1.3,2.2-2.3,3.1-3.4c6.5-7.6,12.9-15.3,19.6-22.8c1.2-1.4,3.6-2.3,5.5-2.4c6.8-0.3,13.6-0.1,20.5-0.1c2.1,0,3.6,0.3,3.6,3
		c-0.2,29.8-0.2,59.7-0.4,89.5c0,0.4-0.2,0.7-0.4,1.4c-8.2,0-16.4,0-25.1,0l0-50.4c-0.5-0.2-0.5-0.2-1-0.3
		c-7.3,9.5-14.6,18.9-22.5,29.1C56.7,174.3,50,164,43.3,153.7C42.9,153.9,42.6,154,42.2,154.1z"/>
	<path class="st0" d="M155.6,33.3v45.9c7.4,0,14.6,0.2,21.8-0.2c1,0,1.8-2.8,2.7-4.4c-0.3-0.4-0.6-0.8-1-1.2c-3,0-6.1-0.1-9.1,0
		c-2.6,0.1-3.7-0.7-3.5-3.4c0.2-4.5,0-9.1,0.4-13.6c0.1-1,1.5-2.6,2.3-2.6c13.6-0.1,27.3-0.1,41,0c0.4,0,0.7,0.3,1.5,0.6v48.5h-88.2
		c0-1.6,0-3,0-4.5c0.1-22.9,0-45.7,0.4-68.6c0.1-6.6-2.1-11.3-7.3-15c-2.2-1.6-4.3-3.3-7.2-5.5c2.1-0.1,3.4-0.2,4.6-0.2
		c27.7,0,55.4,0.1,83.1-0.1c3.7,0,5.3,0.7,5,4.8c-0.4,4.8-0.3,9.6-0.3,14.4c0,3.5-1,4.9-4.9,4.8c-12.4-0.2-24.9,0.1-37.3,0.2
		C158.4,33.3,157.3,33.3,155.6,33.3z"/>
	<path class="st0" d="M119.7,112.7c3.9,0,6.7,0,9.5,0c21.4,0,42.8,0,64.2,0c9,0,14.9,4.3,17.6,13c0.4,1.4,1,2.9,1,4.3
		c-0.1,9.7,0.2,19.5-0.7,29.2c-0.8,8.4-5.4,11.6-13.9,11.6c-11.4,0-22.7,0-34.1,0c-5.9,0-6.3,0.3-6.4,6.3
		c-0.1,8.3-0.1,16.6-0.2,24.9c0,1.4-0.2,2.9-0.3,4.5h-25.3c0-1.7,0-3.3,0-5c0.1-22.2-0.1-44.4,0.4-66.6c0.2-8.1-2.1-14.3-8.6-19.1
		C122.1,115.2,121.4,114.3,119.7,112.7z M157.2,148h30.3v-11.3c-7.1,0-14,0-20.9,0C156.2,136.6,156.2,136.6,157.2,148z"/>
	<path class="st0" d="M103.7,33c-8.9,0-16.5,0.2-24.1-0.1c-3.5-0.1-4.6,0.9-4.6,4.5c-0.2,20.3-0.6,40.7-0.9,61c0,1.4,0,2.9,0,4.6
		H42.8V33.1H6c0-7.7-0.1-15,0.1-22.3c0-0.6,1.6-1.5,2.6-1.7c2-0.3,4-0.1,6-0.1c28.1,0,56.2,0,84.3-0.1c3.5,0,5,0.7,4.7,4.7
		C103.4,19.9,103.7,26.2,103.7,33z"/>
</g>
</svg>
